<svg width="32" height="32" viewBox="0 0 32 32" fill="none" xmlns="http://www.w3.org/2000/svg">
  <!-- K: | y < -->
  <path d="M6 9V23" stroke="#10b981" stroke-width="3" stroke-linecap="round"/>
  <path d="M14 11L9 16L14 21" stroke="#10b981" stroke-width="3" stroke-linecap="round" stroke-linejoin="round"/>
  
  <!-- H: { - } con espaciado optimizado para parecer una H -->
  <!-- Llave izquierda { (Peak en 17, Stem en 19) -->
  <path d="M21 9C20 9 19 10 19 11V14C19 15 18 16 17 16C18 16 19 17 19 18V21C19 22 20 23 21 23" stroke="#52525b" stroke-width="2.5" stroke-linecap="round"/>
  
  <!-- Guion central - (Flotando entre 23 y 25) -->
  <path d="M23 16H25" stroke="#71717a" stroke-width="2.5" stroke-linecap="round"/>
  
  <!-- Llave derecha } (Peak en 31, Stem en 29) -->
  <path d="M27 9C28 9 29 10 29 11V14C29 15 30 16 31 16C30 16 29 17 29 18V21C29 22 28 23 27 23" stroke="#52525b" stroke-width="2.5" stroke-linecap="round"/>
</svg>
